<svg width="20" height="20" viewBox="0 0 20 20" fill="none" xmlns="http://www.w3.org/2000/svg">
<g clip-path="url(#clip0_11_9122)">
<mask id="mask0_11_9122" style="mask-type:alpha" maskUnits="userSpaceOnUse" x="0" y="-1" width="20" height="21">
<circle cx="10" cy="9.99988" r="10" fill="#D9D9D9"/>
</mask>
<g mask="url(#mask0_11_9122)">
<g clip-path="url(#clip1_11_9122)">
<path d="M25.0026 -0.00012207V19.9999H-4.99915V-0.00012207H25.0026Z" fill="#0437A0"/>
<path d="M9.99826 1.70035L10.2664 2.50119L11.1131 2.50825L10.4322 3.00922L10.6862 3.8136L9.99826 3.31968L9.31031 3.8136L9.56432 3.00922L8.88343 2.50825L9.73014 2.50119L9.99826 1.70035ZM6.39269 15.223L6.66081 16.0239L7.50752 16.0309L6.82663 16.5319L7.08064 17.3398L6.39269 16.8459L5.70474 17.3398L5.96228 16.5319L5.28138 16.0309L6.12809 16.0239L6.39622 15.223H6.39269ZM3.73966 12.5735L4.00779 13.3744L4.8545 13.3814L4.1736 13.8824L4.42761 14.6903L3.73966 14.1964L3.05171 14.6903L3.30572 13.8824L2.62483 13.3814L3.47154 13.3744L3.73966 12.5735ZM2.75889 8.94678L3.02701 9.75115L3.87372 9.75821L3.19283 10.2592L3.45037 11.0636L2.76242 10.5696L2.07447 11.0636L2.32848 10.2592L1.64758 9.75821L2.49429 9.75115L2.76242 8.94678H2.75889ZM3.73966 5.32356L4.00779 6.12441L4.8545 6.13146L4.1736 6.63243L4.42761 7.44034L3.73966 6.94995L3.05171 7.44034L3.30572 6.63243L2.62483 6.13146L3.47154 6.12441L3.73966 5.32356ZM6.38916 2.67054L6.65729 3.47138L7.50399 3.47844L6.8231 3.97941L7.07711 4.78731L6.38916 4.2934L5.70121 4.78731L5.95522 3.97941L5.27432 3.47844L6.12104 3.47138L6.38916 2.67054ZM13.625 2.67406L13.8931 3.47491L14.7398 3.48197L14.0589 3.98294L14.313 4.79084L13.625 4.29693L12.9371 4.79084L13.1911 3.98294L12.5102 3.48197L13.3569 3.47491L13.625 2.67406ZM16.2674 5.31651L16.5356 6.11735L17.3823 6.12441L16.7014 6.62538L16.9554 7.43328L16.2674 6.93937L15.5795 7.43328L15.837 6.62538L15.1561 6.12441L16.0028 6.11735L16.271 5.31651H16.2674ZM17.2376 8.93972L17.5058 9.74057L18.3525 9.74762L17.6716 10.2486L17.9291 11.0565L17.2412 10.5626L16.5532 11.0565L16.8072 10.2486L16.1263 9.74762L16.973 9.74057L17.2412 8.93972H17.2376ZM16.2745 12.5524L16.5426 13.3532L17.3893 13.3603L16.7084 13.8612L16.9625 14.6656L16.2745 14.1717L15.5865 14.6656L15.8406 13.8612L15.1597 13.3603L16.0064 13.3532L16.2745 12.5524ZM13.625 15.2054L13.8931 16.0062L14.7398 16.0133L14.0589 16.5142L14.313 17.3222L13.625 16.8282L12.9371 17.3222L13.1911 16.5142L12.5102 16.0133L13.3569 16.0062L13.625 15.2054ZM9.99826 16.1826L10.2664 16.9835L11.1131 16.9905L10.4322 17.4915L10.6862 18.2994L9.99826 17.8055L9.31031 18.2994L9.56432 17.4915L8.88343 16.9905L9.73014 16.9835L9.99826 16.1826Z" fill="#FEDC36"/>
</g>
</g>
</g>
<defs>
<clipPath id="clip0_11_9122">
<rect width="20" height="20" fill="white"/>
</clipPath>
<clipPath id="clip1_11_9122">
<rect width="20" height="20" fill="white"/>
</clipPath>
</defs>
</svg>
