<svg width="19" height="19" viewBox="0 0 19 19" fill="none" xmlns="http://www.w3.org/2000/svg">
<path d="M8.72925 14.8958L16.4376 14.8958" stroke="#1D3068" stroke-width="1.5" stroke-linecap="round" stroke-linejoin="round"/>
<path d="M2.5625 14.8958H4.875" stroke="#1D3068" stroke-width="1.5" stroke-linecap="round" stroke-linejoin="round"/>
<path d="M6.80208 16.8229C7.86638 16.8229 8.72917 15.9601 8.72917 14.8958C8.72917 13.8315 7.86638 12.9688 6.80208 12.9688C5.73778 12.9688 4.875 13.8315 4.875 14.8958C4.875 15.9601 5.73778 16.8229 6.80208 16.8229Z" stroke="#1D3068" stroke-width="1.5" stroke-linecap="round" stroke-linejoin="round"/>
<path d="M14.8958 9.5H16.4374" stroke="#1D3068" stroke-width="1.5" stroke-linecap="round" stroke-linejoin="round"/>
<path d="M2.5625 9.5H11.0417" stroke="#1D3068" stroke-width="1.5" stroke-linecap="round" stroke-linejoin="round"/>
<path d="M12.9688 11.4272C14.0331 11.4272 14.8959 10.5644 14.8959 9.50008C14.8959 8.43578 14.0331 7.573 12.9688 7.573C11.9045 7.573 11.0417 8.43578 11.0417 9.50008C11.0417 10.5644 11.9045 11.4272 12.9688 11.4272Z" stroke="#1D3068" stroke-width="1.5" stroke-linecap="round" stroke-linejoin="round"/>
<path d="M10.2708 4.10425H16.4374" stroke="#1D3068" stroke-width="1.5" stroke-linecap="round" stroke-linejoin="round"/>
<path d="M2.5625 4.10425H6.41667" stroke="#1D3068" stroke-width="1.5" stroke-linecap="round" stroke-linejoin="round"/>
<path d="M8.34383 6.03117C9.40813 6.03117 10.2709 5.16838 10.2709 4.10409C10.2709 3.03979 9.40813 2.177 8.34383 2.177C7.27953 2.177 6.41675 3.03979 6.41675 4.10409C6.41675 5.16838 7.27953 6.03117 8.34383 6.03117Z" stroke="#1D3068" stroke-width="1.5" stroke-linecap="round" stroke-linejoin="round"/>
</svg>
