<svg width="19" height="19" viewBox="0 0 19 19" fill="none" xmlns="http://www.w3.org/2000/svg">
<path d="M6.58749 9.5454C6.58749 7.93319 7.89371 6.6259 9.50545 6.6259C11.1172 6.6259 12.4241 7.93319 12.4241 9.5454C12.4241 11.1576 11.1172 12.4649 9.50545 12.4649C7.89371 12.4649 6.58749 11.1576 6.58749 9.5454ZM5.00972 9.5454C5.00972 12.0291 7.02245 14.0424 9.50545 14.0424C11.9884 14.0424 14.0012 12.0291 14.0012 9.5454C14.0012 7.06168 11.9884 5.04837 9.50545 5.04837C7.02245 5.04837 5.00972 7.06168 5.00972 9.5454ZM13.1285 4.87006C13.1284 5.07792 13.19 5.28113 13.3053 5.454C13.4207 5.62687 13.5848 5.76164 13.7767 5.84126C13.9686 5.92088 14.1799 5.94178 14.3837 5.90131C14.5875 5.86084 14.7748 5.76082 14.9218 5.6139C15.0688 5.46699 15.1689 5.27977 15.2095 5.07592C15.2501 4.87208 15.2294 4.66076 15.15 4.4687C15.0705 4.27663 14.9359 4.11244 14.7632 3.9969C14.5905 3.88135 14.3874 3.81963 14.1796 3.81955H14.1791C13.9006 3.81968 13.6335 3.93038 13.4365 4.12735C13.2395 4.32432 13.1288 4.59145 13.1285 4.87006ZM5.96832 16.674C5.11471 16.6351 4.65075 16.4929 4.34243 16.3728C3.93366 16.2136 3.64201 16.024 3.33536 15.7177C3.02872 15.4114 2.8389 15.1199 2.68047 14.711C2.56027 14.4028 2.41809 13.9385 2.37929 13.0847C2.33684 12.1615 2.32837 11.8842 2.32837 9.54547C2.32837 7.20671 2.33754 6.93018 2.37929 6.00626C2.41816 5.15241 2.5614 4.68909 2.68047 4.37991C2.8396 3.97102 3.02914 3.67928 3.33536 3.37255C3.64159 3.06582 3.93296 2.87595 4.34243 2.71747C4.65061 2.59724 5.11471 2.45501 5.96832 2.4162C6.89119 2.37374 7.16842 2.36526 9.50545 2.36526C11.8425 2.36526 12.12 2.37444 13.0436 2.4162C13.8972 2.45508 14.3604 2.59836 14.6695 2.71747C15.0783 2.87595 15.3699 3.06624 15.6766 3.37255C15.9832 3.67886 16.1723 3.97102 16.3315 4.37991C16.4517 4.68818 16.5939 5.15241 16.6327 6.00626C16.6751 6.93018 16.6836 7.20671 16.6836 9.54547C16.6836 11.8842 16.6751 12.1608 16.6327 13.0847C16.5938 13.9385 16.4509 14.4026 16.3315 14.711C16.1723 15.1199 15.9828 15.4116 15.6766 15.7177C15.3704 16.0237 15.0783 16.2136 14.6695 16.3728C14.3613 16.493 13.8972 16.6352 13.0436 16.674C12.1207 16.7165 11.8435 16.725 9.50545 16.725C7.16737 16.725 6.89091 16.7165 5.96832 16.674ZM5.89582 0.840635C4.96377 0.883093 4.32688 1.03092 3.77067 1.24742C3.19465 1.47099 2.70701 1.77092 2.21973 2.25758C1.73245 2.74423 1.43337 3.23277 1.20986 3.80897C0.993432 4.36568 0.845643 5.00241 0.803197 5.93473C0.760051 6.86852 0.750175 7.16706 0.750175 9.5454C0.750175 11.9237 0.760051 12.2223 0.803197 13.1561C0.845643 14.0885 0.993432 14.7251 1.20986 15.2818C1.43337 15.8577 1.73252 16.3468 2.21973 16.8332C2.70694 17.3197 3.19465 17.6192 3.77067 17.8434C4.32793 18.0599 4.96377 18.2077 5.89582 18.2502C6.82983 18.2926 7.12779 18.3032 9.50545 18.3032C11.8831 18.3032 12.1815 18.2933 13.1151 18.2502C14.0472 18.2077 14.6837 18.0599 15.2402 17.8434C15.8159 17.6192 16.3039 17.3199 16.7912 16.8332C17.2784 16.3466 17.5769 15.8577 17.801 15.2818C18.0175 14.7251 18.1659 14.0884 18.2077 13.1561C18.2501 12.2216 18.26 11.9237 18.26 9.5454C18.26 7.16706 18.2501 6.86852 18.2077 5.93473C18.1652 5.00234 18.0175 4.36533 17.801 3.80897C17.5769 3.23313 17.2777 2.745 16.7912 2.25758C16.3046 1.77015 15.8159 1.47099 15.2409 1.24742C14.6837 1.03092 14.0471 0.882392 13.1158 0.840635C12.1822 0.798177 11.8838 0.787598 9.50615 0.787598C7.12849 0.787598 6.82983 0.797476 5.89582 0.840635Z" fill="#737C98"/>
</svg>
