<svg width="70" height="20" viewBox="0 0 70 20" fill="none" xmlns="http://www.w3.org/2000/svg">
<path d="M67.8511 2.18906C69.1713 3.59192 69.8171 5.40621 69.9457 8.06906H69.9429C69.9743 8.74621 69.9971 9.33192 70 9.99763C69.9971 10.6719 69.9743 11.2576 69.9429 11.9348C69.8171 14.5976 69.1713 16.4119 67.8483 17.8148L67.814 17.8491C66.4109 19.1691 64.5964 19.8148 61.9331 19.9433C61.2559 19.9748 60.6672 19.9976 60.0043 20.0005L10.0043 20.0005C9.32991 19.9976 8.74411 19.9748 8.06687 19.9433C5.40078 19.8147 3.58909 19.1691 2.18317 17.8462L2.14888 17.8119C0.828693 16.4091 0.182884 14.5948 0.0542939 11.9319H0.0571526C0.0257195 11.2548 0.0028612 10.6691 3.8147e-06 10.0033C0.00286132 9.32906 0.0257198 8.74335 0.0571529 8.0662C0.182886 5.40335 0.828693 3.58906 2.15174 2.1862L2.18603 2.15192C3.58909 0.831918 5.40364 0.186199 8.06687 0.0576277C8.74411 0.0261994 9.33277 0.00334567 9.99572 0.000488281L59.9957 0.000490666C60.6736 0.00903142 61.2559 0.0262049 61.9331 0.0576335C64.5992 0.186205 66.4109 0.831919 67.8168 2.15478L67.8511 2.18906Z" fill="#ED1C24"/>
<path d="M12.6066 6.36768C13.6393 6.36768 14.3474 6.53736 14.7308 6.87673C15.1266 7.20993 15.3245 7.83314 15.3245 8.74636C15.3245 9.44361 15.2193 9.95267 15.0091 10.2735C14.7926 10.5944 14.4247 10.8042 13.9052 10.9029L15.4822 13.4019C15.5193 13.4513 15.5254 13.4945 15.5007 13.5315C15.4822 13.5685 15.4389 13.587 15.3708 13.587H14.2021C14.0475 13.587 13.9238 13.5191 13.831 13.3834L12.3097 10.9955H11.4563V13.4389C11.4563 13.5006 11.4471 13.5407 11.4285 13.5593C11.41 13.5778 11.3729 13.587 11.3172 13.587H10.1391C10.0835 13.587 10.0464 13.5778 10.0278 13.5593C10.0093 13.5407 10 13.5006 10 13.4389V6.59906C10 6.5497 10.0093 6.51885 10.0278 6.50651C10.0464 6.488 10.0835 6.47566 10.1391 6.46949C10.9245 6.40161 11.747 6.36768 12.6066 6.36768ZM12.4582 7.63569H11.4563V9.87554H12.4582C13.0271 9.87554 13.4012 9.81075 13.5806 9.68117C13.7599 9.53925 13.8496 9.23999 13.8496 8.78338C13.8496 8.3206 13.7568 8.01517 13.5713 7.86708C13.392 7.71282 13.0209 7.63569 12.4582 7.63569Z" fill="white"/>
<path d="M16.5617 6.42321H21.209C21.3018 6.42321 21.3482 6.46949 21.3482 6.56204V7.55239C21.3482 7.64494 21.3018 7.69122 21.209 7.69122H17.8789V9.44053H20.9215C21.0204 9.44053 21.0699 9.4868 21.0699 9.57936V10.5234C21.0699 10.616 21.0204 10.6623 20.9215 10.6623H17.8789V12.319H21.209C21.3018 12.319 21.3482 12.3653 21.3482 12.4578V13.4482C21.3482 13.5407 21.3018 13.587 21.209 13.587H16.5617C16.469 13.587 16.4226 13.5377 16.4226 13.4389V6.56204C16.4226 6.46949 16.469 6.42321 16.5617 6.42321Z" fill="white"/>
<path d="M25.2667 6.36768C26.349 6.36768 27.1189 6.65151 27.5765 7.21919C28.0403 7.78686 28.2722 8.71551 28.2722 10.0051C28.2722 11.3009 28.0403 12.2295 27.5765 12.791C27.125 13.3525 26.3551 13.6333 25.2667 13.6333C24.2155 13.6333 23.3188 13.6024 22.5767 13.5407C22.4839 13.5346 22.4375 13.4945 22.4375 13.4204V6.59906C22.4375 6.5497 22.4468 6.51885 22.4654 6.50651C22.4839 6.488 22.521 6.47566 22.5767 6.46949C23.3621 6.40161 24.2587 6.36768 25.2667 6.36768ZM25.1925 7.63569H23.8939V12.3653H25.2667C25.8171 12.3653 26.2098 12.1833 26.4448 11.8192C26.6798 11.4552 26.7973 10.8505 26.7973 10.0051C26.7973 9.16594 26.6736 8.56125 26.4263 8.19102C26.1789 7.8208 25.7677 7.63569 25.1925 7.63569Z" fill="white"/>
<path d="M35.4993 6.41395H36.6217C36.6959 6.41395 36.7361 6.46332 36.7423 6.56204L37.4102 13.4389C37.4164 13.5377 37.37 13.587 37.2711 13.587H36.093C36.0064 13.587 35.96 13.5377 35.9539 13.4389L35.5457 8.99626L33.876 13.2261C33.8389 13.3186 33.774 13.3649 33.6812 13.3649H32.8C32.7196 13.3649 32.6547 13.3186 32.6052 13.2261L30.9448 8.99626L30.5366 13.4389C30.5305 13.5377 30.4841 13.587 30.3975 13.587H29.2194C29.1205 13.587 29.0741 13.5377 29.0803 13.4389L29.7482 6.5713C29.7544 6.47257 29.7945 6.42321 29.8688 6.42321H30.9912C31.1396 6.42321 31.2478 6.44789 31.3158 6.49725C31.39 6.54662 31.4581 6.64226 31.5199 6.78418L33.2452 11.2916L34.9706 6.78418C35.0263 6.63609 35.0912 6.53736 35.1654 6.488C35.2396 6.43864 35.3509 6.41395 35.4993 6.41395Z" fill="white"/>
<path d="M38.6014 6.42321H43.2488C43.3415 6.42321 43.3879 6.46949 43.3879 6.56204V7.55239C43.3879 7.64494 43.3415 7.69122 43.2488 7.69122H39.9187V9.44053H42.9612C43.0602 9.44053 43.1096 9.4868 43.1096 9.57936V10.5234C43.1096 10.616 43.0602 10.6623 42.9612 10.6623H39.9187V12.319H43.2488C43.3415 12.319 43.3879 12.3653 43.3879 12.4578V13.4482C43.3879 13.5407 43.3415 13.587 43.2488 13.587H38.6014C38.5087 13.587 38.4623 13.5377 38.4623 13.4389V6.56204C38.4623 6.46949 38.5087 6.42321 38.6014 6.42321Z" fill="white"/>
<path d="M47.3065 6.36768C48.3887 6.36768 49.1586 6.65151 49.6162 7.21919C50.08 7.78686 50.3119 8.71551 50.3119 10.0051C50.3119 11.3009 50.08 12.2295 49.6162 12.791C49.1648 13.3525 48.3949 13.6333 47.3065 13.6333C46.2552 13.6333 45.3585 13.6024 44.6164 13.5407C44.5236 13.5346 44.4773 13.4945 44.4773 13.4204V6.59906C44.4773 6.5497 44.4865 6.51885 44.5051 6.50651C44.5236 6.488 44.5607 6.47566 44.6164 6.46949C45.4018 6.40161 46.2985 6.36768 47.3065 6.36768ZM47.2323 7.63569H45.9336V12.3653H47.3065C47.8568 12.3653 48.2495 12.1833 48.4845 11.8192C48.7195 11.4552 48.837 10.8505 48.837 10.0051C48.837 9.16594 48.7133 8.56125 48.466 8.19102C48.2186 7.8208 47.8074 7.63569 47.2323 7.63569Z" fill="white"/>
<path d="M51.5282 6.42321H52.7062C52.799 6.42321 52.8454 6.47257 52.8454 6.5713V13.4389C52.8454 13.5377 52.799 13.587 52.7062 13.587H51.5282C51.4354 13.587 51.389 13.5377 51.389 13.4389V6.5713C51.389 6.47257 51.4354 6.42321 51.5282 6.42321Z" fill="white"/>
<path d="M56.7861 6.36768C57.3488 6.36768 57.7199 6.42938 57.8992 6.55279C58.0662 6.67002 58.2208 6.97854 58.363 7.47834L59.9956 13.4389C60.0142 13.5377 59.974 13.587 59.875 13.587H58.6877C58.6506 13.587 58.6228 13.5778 58.6042 13.5593C58.5918 13.5407 58.5795 13.5006 58.5671 13.4389L58.0384 11.5138H55.5524L55.0144 13.4389C55.002 13.5006 54.9865 13.5407 54.968 13.5593C54.9556 13.5778 54.9278 13.587 54.8845 13.587H53.7064C53.6075 13.587 53.5673 13.5377 53.5859 13.4389L55.2463 7.47834C55.3885 6.97854 55.5431 6.67002 55.7101 6.55279C55.8894 6.42938 56.2481 6.36768 56.7861 6.36768ZM56.7861 7.58941C56.7119 7.58941 56.6624 7.60484 56.6377 7.63569C56.6129 7.66654 56.5851 7.74059 56.5542 7.85782L55.877 10.3105H57.7137L57.0458 7.85782C57.0025 7.70973 56.9592 7.62643 56.916 7.60792C56.8912 7.59558 56.8479 7.58941 56.7861 7.58941Z" fill="white"/>
</svg>
