<svg width="16" height="16" viewBox="0 0 16 16" fill="none" xmlns="http://www.w3.org/2000/svg">
<path d="M12.0001 14C13.1047 14 14.0001 13.1046 14.0001 12C14.0001 10.8954 13.1047 10 12.0001 10C10.8956 10 10.0001 10.8954 10.0001 12C10.0001 13.1046 10.8956 14 12.0001 14Z" stroke="#A9AABC" stroke-width="1.5" stroke-linecap="round" stroke-linejoin="round"/>
<path d="M6 9L10 11" stroke="#A9AABC" stroke-width="1.5" stroke-linecap="round" stroke-linejoin="round"/>
<path d="M4 10C5.10457 10 6 9.10457 6 8C6 6.89543 5.10457 6 4 6C2.89543 6 2 6.89543 2 8C2 9.10457 2.89543 10 4 10Z" stroke="#A9AABC" stroke-width="1.5" stroke-linecap="round" stroke-linejoin="round"/>
<path d="M10 5L6 7" stroke="#A9AABC" stroke-width="1.5" stroke-linecap="round" stroke-linejoin="round"/>
<path d="M12.0001 6C13.1047 6 14.0001 5.10457 14.0001 4C14.0001 2.89543 13.1047 2 12.0001 2C10.8956 2 10.0001 2.89543 10.0001 4C10.0001 5.10457 10.8956 6 12.0001 6Z" stroke="#A9AABC" stroke-width="1.5" stroke-linecap="round" stroke-linejoin="round"/>
</svg>
