<svg width="36" height="36" viewBox="0 0 36 36" fill="none" xmlns="http://www.w3.org/2000/svg">
<path d="M17.9998 26.3332C22.6022 26.3332 26.3332 22.6022 26.3332 17.9999C26.3332 13.3975 22.6022 9.66653 17.9998 9.66653C13.3975 9.66653 9.6665 13.3975 9.6665 17.9999C9.6665 22.6022 13.3975 26.3332 17.9998 26.3332Z" fill="url(#paint0_linear_295_813)"/>
<path d="M25.8316 2.3382L23.8732 7.06654C23.2349 8.60654 20.9249 7.64987 21.5632 6.10987L23.5216 1.38154C24.1599 -0.158462 26.4699 0.798204 25.8316 2.3382ZM14.4216 29.8832L12.4632 34.6115C11.8249 36.1515 9.5149 35.1949 10.1532 33.6549L12.1116 28.9265C12.7499 27.3865 15.0599 28.3432 14.4216 29.8832ZM34.6082 12.4682L29.8799 14.4265C28.3399 15.0649 27.3832 12.7549 28.9232 12.1165L33.6516 10.1582C35.1916 9.51987 36.1482 11.8299 34.6082 12.4682ZM7.06324 23.8782L2.33491 25.8365C0.794905 26.4749 -0.161762 24.1649 1.37824 23.5265L6.10657 21.5682C7.64657 20.9299 8.60324 23.2399 7.06324 23.8782ZM33.6516 25.8382L28.9232 23.8799C27.3832 23.2415 28.3399 20.9315 29.8799 21.5699L34.6082 23.5282C36.1482 24.1665 35.1916 26.4765 33.6516 25.8382ZM6.10657 14.4282L1.37824 12.4699C-0.161762 11.8315 0.794905 9.52154 2.33491 10.1599L7.06324 12.1182C8.60324 12.7565 7.64657 15.0665 6.10657 14.4282ZM12.4616 1.37987L14.4199 6.1082C15.0582 7.6482 12.7482 8.60487 12.1099 7.06487L10.1516 2.33654C9.51324 0.796538 11.8232 -0.160129 12.4616 1.37987ZM23.8716 28.9249L25.8299 33.6532C26.4682 35.1932 24.1582 36.1499 23.5199 34.6099L21.5616 29.8815C20.9232 28.3415 23.2332 27.3849 23.8716 28.9249Z" fill="#FFB300"/>
<defs>
<linearGradient id="paint0_linear_295_813" x1="17.9998" y1="9.66653" x2="17.9998" y2="26.111" gradientUnits="userSpaceOnUse">
<stop stop-color="#FFC227"/>
<stop offset="1" stop-color="#FFB300"/>
</linearGradient>
</defs>
</svg>
