<svg width="17" height="15" viewBox="0 0 17 15" fill="none" xmlns="http://www.w3.org/2000/svg">
<path d="M1.73716 6.88057C1.73716 6.88057 8.85782 3.88147 11.3274 2.82541C12.2741 2.40302 15.4845 1.05127 15.4845 1.05127C15.4845 1.05127 16.9663 0.459923 16.8428 1.8961C16.8016 2.4875 16.4724 4.55729 16.1431 6.79609C15.6492 9.9642 15.1141 13.428 15.1141 13.428C15.1141 13.428 15.0318 14.3995 14.3321 14.5685C13.6324 14.7375 12.4798 13.9772 12.2741 13.8081C12.1094 13.6815 9.18708 11.7806 8.11693 10.8512C7.8288 10.5978 7.49954 10.091 8.15806 9.49955C9.63984 8.10558 11.4097 6.3737 12.4798 5.27544C12.9738 4.76851 13.4677 3.58577 11.4097 5.02194C8.48737 7.09179 5.60618 9.03489 5.60618 9.03489C5.60618 9.03489 4.94761 9.45728 3.71283 9.0771C2.47799 8.69698 1.03739 8.19006 1.03739 8.19006C1.03739 8.19006 0.0496152 7.55645 1.73716 6.88057Z" fill="#737C98"/>
</svg>
