<svg width="16" height="18" viewBox="0 0 16 18" fill="none" xmlns="http://www.w3.org/2000/svg">
<path d="M13.2727 3.75221C13.1566 3.69221 13.0435 3.62642 12.934 3.55511C12.6155 3.34456 12.3235 3.09646 12.0643 2.81616C11.4156 2.07399 11.1734 1.32107 11.0841 0.793913H11.0877C11.0132 0.35635 11.044 0.0732422 11.0487 0.0732422H8.09431V11.4972C8.09431 11.6506 8.09431 11.8022 8.08786 11.952C8.08786 11.9706 8.08606 11.9878 8.08499 12.0079C8.08499 12.0161 8.08499 12.0247 8.0832 12.0333C8.0832 12.0354 8.0832 12.0376 8.0832 12.0398C8.05206 12.4496 7.92066 12.8456 7.70058 13.1928C7.48049 13.54 7.17845 13.8278 6.82104 14.0308C6.44854 14.2427 6.02723 14.3539 5.59866 14.3534C4.22219 14.3534 3.1066 13.231 3.1066 11.8448C3.1066 10.4586 4.22219 9.33625 5.59866 9.33625C5.85922 9.33601 6.11818 9.37701 6.36592 9.45773L6.3695 6.44962C5.61743 6.35247 4.85338 6.41225 4.12556 6.62516C3.39774 6.83808 2.72195 7.19953 2.14081 7.6867C1.6316 8.12913 1.2035 8.65704 0.875786 9.24666C0.751075 9.46168 0.280544 10.3257 0.223564 11.728C0.187728 12.5239 0.426756 13.3485 0.540716 13.6893V13.6965C0.612389 13.8972 0.89012 14.582 1.34273 15.1593C1.7077 15.6224 2.13891 16.0292 2.62245 16.3666V16.3595L2.62962 16.3666C4.05985 17.3385 5.64561 17.2747 5.64561 17.2747C5.92011 17.2636 6.83968 17.2747 7.88395 16.7798C9.04218 16.2312 9.70157 15.4138 9.70157 15.4138C10.1228 14.9253 10.4578 14.3687 10.6921 13.7678C10.9594 13.065 11.0487 12.2222 11.0487 11.8853V5.82464C11.0845 5.84614 11.5618 6.16186 11.5618 6.16186C11.5618 6.16186 12.2495 6.60264 13.3225 6.88969C14.0922 7.09396 15.1293 7.13697 15.1293 7.13697V4.20411C14.766 4.24353 14.0281 4.12885 13.2727 3.75221Z" fill="#737C98"/>
</svg>
