<svg width="20" height="20" viewBox="0 0 20 20" fill="none" xmlns="http://www.w3.org/2000/svg">
<mask id="mask0_295_247" style="mask-type:alpha" maskUnits="userSpaceOnUse" x="0" y="0" width="20" height="20">
<circle cx="10" cy="10" r="10" fill="#D9D9D9"/>
</mask>
<g mask="url(#mask0_295_247)">
<g clip-path="url(#clip0_295_247)">
<path d="M24.9991 1.53819V3.07638H10.1993V1.53819H24.9991ZM24.9991 4.61457V6.15276H10.1993V4.61457H24.9991ZM24.9991 7.69095V9.22914H10.1993V7.69095H24.9991ZM24.9991 10.7673V12.3055H-4.99912V10.7673H24.9991ZM24.9991 13.8437V15.3819H-4.99912V13.8437H24.9991ZM24.9991 16.9201V18.4583H-4.99912V16.9201H24.9991Z" fill="#F4F4F5"/>
<path d="M-4.99912 0L24.9991 0V1.53819H-4.99912V0ZM-4.99912 18.4618H24.9991V20H-4.99912V18.4618ZM-4.99912 15.3854H24.9991V16.9236H-4.99912V15.3854ZM-4.99912 12.309H24.9991V13.8472H-4.99912V12.309ZM-4.99912 9.23267H24.9991V10.7709H-4.99912V9.23267ZM-4.99912 6.15629H24.9991V7.69448H-4.99912V6.15629ZM-4.99912 3.07991H24.9991V4.6181H-4.99912V3.07991Z" fill="#F90805"/>
<path d="M-4.99912 0L10.1993 0V10.7673H-4.99912V0Z" fill="#0437A0"/>
<path d="M8.93279 0.532718L9.07038 0.959601H9.51843L9.15506 1.22067L9.29265 1.64755L8.92926 1.38296L8.56589 1.64755L8.707 1.22067L8.34363 0.959601H8.79167L8.92926 0.532718H8.93279ZM-3.73258 4.82624L-3.59499 5.25313H-3.14694L-3.51032 5.5142L-3.37273 5.94108L-3.73611 5.67648L-4.09949 5.94108L-3.95837 5.5142L-4.32175 5.25313H-3.8737L-3.73611 4.82624H-3.73258ZM-2.46604 5.89874L-2.32845 6.32563H-1.8804L-2.24378 6.5867L-2.10619 7.01358L-2.46604 6.74898L-2.82942 7.01358L-2.69183 6.5867L-3.05521 6.32563H-2.60716L-2.46957 5.89874H-2.46604ZM7.66626 5.89874L7.80385 6.32563H8.2519L7.88852 6.5867L8.02611 7.01358L7.66273 6.74898L7.29935 7.01358L7.43694 6.5867L7.07356 6.32563H7.52161L7.6592 5.89874H7.66626ZM5.13318 5.89874L5.27077 6.32563H5.71882L5.35544 6.5867L5.49303 7.01358L5.12965 6.74898L4.76627 7.01358L4.90739 6.5867L4.54401 6.32563H4.99206L5.12965 5.89874H5.13318ZM2.60011 5.89874L2.7377 6.32563H3.18575L2.82237 6.5867L2.95996 7.01358L2.59658 6.74898L2.2332 7.01358L2.37432 6.5867L2.01094 6.32563H2.45899L2.59658 5.89874H2.60011ZM0.0670314 5.90227L0.204622 6.32916H0.652673L0.289293 6.59022L0.426884 7.01711L0.0635037 6.75251L-0.299876 7.01711L-0.162286 6.59022L-0.525666 6.32916H-0.0705585L0.0670314 5.90227ZM-1.19951 4.82977L-1.06192 5.25666H-0.613864L-0.977244 5.51772L-0.839654 5.94461L-1.19951 5.68001L-1.56289 5.94461L-1.42177 5.51772L-1.78515 5.25666H-1.3371L-1.19951 4.82977ZM6.39972 4.82977L6.53731 5.25666H6.98536L6.62198 5.51772L6.75957 5.94461L6.39972 5.68001L6.03634 5.94461L6.17746 5.51772L5.81408 5.25666H6.26213L6.39972 4.82977ZM8.93279 4.82977L9.07038 5.25666H9.51843L9.15506 5.51772L9.29265 5.94461L8.92926 5.68001L8.56589 5.94461L8.707 5.51772L8.34363 5.25666H8.79167L8.92926 4.82977H8.93279ZM8.93279 6.9783L9.07038 7.40518H9.51843L9.15506 7.66625L9.29265 8.09314L8.92926 7.82854L8.56589 8.09314L8.707 7.66625L8.34363 7.40518H8.79167L8.92926 6.98183L8.93279 6.9783ZM6.39972 6.9783L6.53731 7.40518H6.98536L6.62198 7.66625L6.75957 8.09314L6.39972 7.82854L6.03634 8.09314L6.17746 7.66625L5.81408 7.40518H6.26213L6.39972 6.98183V6.9783ZM-1.19951 6.9783L-1.06192 7.40518H-0.613864L-0.977244 7.66625L-0.839654 8.09314L-1.19951 7.82854L-1.56289 8.09314L-1.42177 7.66625L-1.78515 7.40518H-1.3371L-1.19951 6.98183V6.9783ZM-2.46604 8.0508L-2.32845 8.47768H-1.8804L-2.24378 8.73875L-2.10619 9.16564L-2.46604 8.90104L-2.82942 9.16564L-2.69183 8.73875L-3.05521 8.47768H-2.60716L-2.46957 8.0508H-2.46604ZM7.66626 8.0508L7.80385 8.47768H8.2519L7.88852 8.73875L8.02611 9.16564L7.66273 8.90104L7.29935 9.16564L7.43694 8.73875L7.07356 8.47768H7.52161L7.6592 8.0508H7.66626ZM5.13318 8.0508L5.27077 8.47768H5.71882L5.35544 8.73875L5.49303 9.16564L5.12965 8.90104L4.76627 9.16564L4.90739 8.73875L4.54401 8.47768H4.99206L5.12965 8.0508H5.13318ZM2.60011 8.0508L2.7377 8.47768H3.18575L2.82237 8.73875L2.95996 9.16564L2.59658 8.90104L2.2332 9.16564L2.37432 8.73875L2.01094 8.47768H2.45899L2.59658 8.0508H2.60011ZM0.0670314 8.04727L0.204622 8.47416H0.652673L0.289293 8.73522L0.426884 9.16211L0.0635037 8.89751L-0.299876 9.16211L-0.162286 8.73522L-0.525666 8.47416H-0.0705585L0.0670314 8.04727ZM-3.73258 6.97477L-3.59499 7.40166H-3.14694L-3.51032 7.66272L-3.37273 8.08961L-3.73611 7.82501L-4.09949 8.08961L-3.95837 7.66272L-4.32175 7.40166H-3.8737L-3.73611 6.9783L-3.73258 6.97477ZM-3.73258 9.11977L-3.59499 9.54665H-3.14694L-3.51032 9.80772L-3.37273 10.2346L-3.73611 9.97001L-4.09949 10.2346L-3.95837 9.80772L-4.32175 9.54313H-3.8737L-3.73611 9.11624L-3.73258 9.11977ZM-1.19951 9.11977L-1.06192 9.54665H-0.613864L-0.977244 9.80772L-0.839654 10.2346L-1.19951 9.97001L-1.56289 10.2346L-1.42177 9.80772L-1.78515 9.54313H-1.3371L-1.19951 9.11624V9.11977ZM6.39972 9.11977L6.53731 9.54665H6.98536L6.62198 9.80772L6.75957 10.2346L6.39972 9.97001L6.03634 10.2346L6.17746 9.80772L5.81408 9.54313H6.26213L6.39972 9.11624V9.11977ZM8.93279 9.11977L9.07038 9.54665H9.51843L9.15506 9.80772L9.29265 10.2346L8.92926 9.97001L8.56589 10.2346L8.707 9.80772L8.34363 9.54313H8.79167L8.92926 9.11624L8.93279 9.11977ZM-2.46604 3.75375L-2.32845 4.18063H-1.8804L-2.24378 4.4417L-2.10619 4.86858L-2.46604 4.60398L-2.82942 4.86858L-2.69183 4.4417L-3.05521 4.18063H-2.60716L-2.46957 3.75375H-2.46604ZM-2.46604 1.60875L-2.32845 2.03563H-1.8804L-2.24378 2.2967L-2.10619 2.72005L-2.46604 2.45546L-2.82942 2.72005L-2.69183 2.2967L-3.05521 2.0321H-2.60716L-2.46957 1.60875H-2.46604ZM7.66626 1.60875L7.80385 2.03563H8.2519L7.88852 2.2967L8.02611 2.72005L7.66273 2.45546L7.29935 2.72005L7.43694 2.2967L7.07356 2.0321H7.52161L7.6592 1.60875H7.66626ZM5.13318 1.60875L5.27077 2.03563H5.71882L5.35544 2.2967L5.49303 2.72005L5.12965 2.45546L4.76627 2.72005L4.90739 2.2967L4.54401 2.0321H4.99206L5.12965 1.60875H5.13318ZM2.60011 1.60875L2.7377 2.03563H3.18575L2.82237 2.2967L2.95996 2.72005L2.59658 2.45546L2.2332 2.72005L2.37432 2.2967L2.01094 2.0321H2.45899L2.59658 1.60875H2.60011ZM0.0670314 1.60522L0.204622 2.0321H0.652673L0.289293 2.29317L0.426884 2.71652L0.0670314 2.45546L-0.296348 2.72005L-0.158758 2.2967L-0.522137 2.0321H-0.0705585L0.0670314 1.60875V1.60522ZM-3.73258 2.67772L-3.59499 3.1046H-3.14694L-3.51032 3.36567L-3.37273 3.79255L-3.73611 3.52796L-4.09949 3.79255L-3.95837 3.36567L-4.32175 3.1046H-3.8737L-3.73611 2.67772H-3.73258ZM7.66978 3.75022L7.80737 4.1771H8.25543L7.89205 4.43817L8.02964 4.86505L7.66626 4.60046L7.30288 4.86505L7.44047 4.43817L7.07709 4.1771H7.52514L7.66273 3.75022H7.66978ZM5.13671 3.75022L5.2743 4.1771H5.72235L5.35897 4.43817L5.49656 4.86505L5.13318 4.60046L4.7698 4.86505L4.91092 4.43817L4.54754 4.1771H4.99559L5.13318 3.75022H5.13671ZM2.60363 3.75022L2.74122 4.1771H3.18928L2.8259 4.43817L2.96349 4.86505L2.60011 4.60046L2.23673 4.86505L2.37784 4.43817L2.01446 4.1771H2.46252L2.60011 3.75022H2.60363ZM0.0670314 3.75375L0.204622 4.18063H0.652673L0.289293 4.4417L0.426884 4.86858L0.0635037 4.60398L-0.299876 4.86858L-0.162286 4.4417L-0.525666 4.18063H-0.0705585L0.0670314 3.75375ZM-1.19951 2.68125L-1.06192 3.10813H-0.613864L-0.977244 3.3692L-0.839654 3.79608L-1.19951 3.53148L-1.56289 3.79608L-1.42177 3.3692L-1.78515 3.10813H-1.3371L-1.19951 2.68125ZM-1.19951 0.532718L-1.06192 0.959601H-0.613864L-0.977244 1.22067L-0.839654 1.64755L-1.19951 1.38296L-1.56289 1.64755L-1.42177 1.22067L-1.78515 0.959601H-1.3371L-1.19951 0.532718ZM-3.73258 0.532718L-3.59499 0.959601H-3.14694L-3.51032 1.22067L-3.37273 1.64755L-3.73611 1.38296L-4.09949 1.64755L-3.95837 1.22067L-4.32175 0.959601H-3.8737L-3.73611 0.532718H-3.73258ZM1.33357 9.11977L1.47116 9.54665H1.91921L1.55583 9.80772L1.69342 10.2346L1.33004 9.97001L0.966661 10.2346L1.10425 9.80772L0.740872 9.54313H1.18892L1.32651 9.11624L1.33357 9.11977ZM1.33357 6.97477L1.47116 7.40166H1.91921L1.55583 7.66272L1.69342 8.08961L1.33004 7.82501L0.966661 8.08961L1.10425 7.66272L0.740872 7.40166H1.18892L1.32651 6.9783L1.33357 6.97477ZM1.33357 4.82624L1.47116 5.25313H1.91921L1.55583 5.5142L1.69342 5.94108L1.33004 5.67648L0.966661 5.94108L1.10425 5.5142L0.740872 5.25313H1.18892L1.32651 4.82624H1.33357ZM1.33357 2.67772L1.47116 3.1046H1.91921L1.55583 3.36567L1.69342 3.79255L1.33004 3.52796L0.966661 3.79255L1.10425 3.36567L0.740872 3.1046H1.18892L1.32651 2.67772H1.33357ZM1.33357 0.532718L1.47116 0.959601H1.91921L1.55583 1.22067L1.69342 1.64755L1.33004 1.38296L0.966661 1.64755L1.10425 1.22067L0.740872 0.959601H1.18892L1.32651 0.532718H1.33357ZM3.86664 9.11977L4.00423 9.54665H4.45228L4.08891 9.80772L4.23002 10.2346L3.86664 9.97001L3.50679 10.2346L3.64438 9.80772L3.281 9.54313H3.72905L3.86664 9.11624V9.11977ZM3.86664 6.97477L4.00423 7.40166H4.45228L4.08891 7.66272L4.23002 8.08961L3.86664 7.82501L3.50679 8.08961L3.64438 7.66272L3.281 7.40166H3.72905L3.86664 6.9783V6.97477ZM3.86664 4.82624L4.00423 5.25313H4.45228L4.08891 5.5142L4.23002 5.94108L3.86664 5.67648L3.50679 5.94108L3.64438 5.5142L3.281 5.25313H3.72905L3.86664 4.82624ZM3.86664 2.67772L4.00423 3.1046H4.45228L4.08891 3.36567L4.23002 3.79255L3.86664 3.52796L3.50679 3.79255L3.64438 3.36567L3.281 3.1046H3.72905L3.86664 2.67772ZM3.86664 0.52919L4.00423 0.956073H4.45228L4.08891 1.21714L4.23002 1.64403L3.86664 1.37943L3.50679 1.64403L3.64438 1.21714L3.281 0.956073H3.72905L3.86664 0.52919ZM6.39972 2.67772L6.53731 3.1046H6.98536L6.62198 3.36567L6.75957 3.79255L6.39972 3.52796L6.03634 3.79255L6.17746 3.36567L5.81408 3.1046H6.26213L6.39972 2.67772ZM6.39972 0.52919L6.53731 0.956073H6.98536L6.62198 1.21714L6.75957 1.64403L6.39972 1.37943L6.03634 1.64403L6.17746 1.21714L5.81408 0.956073H6.26213L6.39972 0.52919ZM8.93279 2.67772L9.07038 3.1046H9.51843L9.15506 3.36567L9.29265 3.79255L8.92926 3.52796L8.56589 3.79255L8.707 3.36567L8.34363 3.1046H8.79167L8.92926 2.67772H8.93279Z" fill="#F4F4F5"/>
</g>
</g>
<defs>
<clipPath id="clip0_295_247">
<rect width="20" height="20" fill="white"/>
</clipPath>
</defs>
</svg>
