<svg width="23" height="25" viewBox="0 0 23 25" fill="none" xmlns="http://www.w3.org/2000/svg">
<path d="M14.6667 13C16.9679 13 18.8333 11.1345 18.8333 8.83334C18.8333 6.53215 16.9679 4.66667 14.6667 4.66667C12.3655 4.66667 10.5 6.53215 10.5 8.83334C10.5 11.1345 12.3655 13 14.6667 13Z" fill="url(#paint0_linear_295_272)"/>
<path d="M14.125 1.26042L14.3959 2.79896C14.5771 3.825 13.0375 4.09584 12.8573 3.06979L12.5865 1.53125C12.4052 0.505211 13.9448 0.234378 14.125 1.26042ZM19.6386 3.09479L18.7427 4.375C18.1448 5.22813 16.8656 4.33229 17.4625 3.47917L18.3584 2.19896C18.9563 1.34584 20.2354 2.24167 19.6386 3.09479ZM8.92918 3.86146L10.2094 4.75729C11.0625 5.35521 10.1667 6.63438 9.31356 6.0375L8.03335 5.14167C7.18023 4.54375 8.07606 3.26459 8.92918 3.86146ZM20.0219 11.6281L21.3021 12.524C22.1552 13.1219 21.2594 14.401 20.4063 13.8042L19.1261 12.9083C18.2729 12.3104 19.1688 11.0313 20.0219 11.6281ZM22.2406 8.29063L20.7021 8.56146C19.6761 8.74271 19.4052 7.20313 20.4313 7.02292L21.9698 6.75209C22.9959 6.57084 23.2667 8.11042 22.2406 8.29063Z" fill="#FFB300"/>
<path d="M5.40521 20.774L4.31146 23.3771C4.1448 23.775 4.33125 24.2333 4.72917 24.4C5.12709 24.5667 5.58542 24.3802 5.75209 23.9823L6.84584 21.3792C7.0125 20.9813 6.82605 20.5229 6.42813 20.3563C6.03021 20.1896 5.57188 20.376 5.40521 20.774ZM10.6135 19.7323L9.5198 22.3354C9.35313 22.7333 9.53959 23.1917 9.93751 23.3583C10.3354 23.525 10.7938 23.3385 10.9604 22.9406L12.0542 20.3375C12.2208 19.9396 12.0344 19.4813 11.6365 19.3146C11.2385 19.1479 10.7802 19.3344 10.6135 19.7323Z" fill="#66AFEB"/>
<path d="M4.25001 18.2083C1.94897 18.2083 0.0833435 16.3427 0.0833435 14.0417C0.0833435 11.7406 1.94897 9.875 4.25001 9.875C4.68438 9.875 5.10209 9.94167 5.49584 10.0646C6.0823 8.14583 7.86772 6.75 9.97918 6.75C12.5677 6.75 14.6667 8.84896 14.6667 11.4375C14.6667 11.6823 14.6479 11.9219 14.6115 12.1562C14.9531 12.0281 15.3219 11.9583 15.7083 11.9583C17.4344 11.9583 18.8333 13.3573 18.8333 15.0833C18.8333 16.8094 17.4344 18.2083 15.7083 18.2083H4.25001Z" fill="url(#paint1_linear_295_272)"/>
<path d="M5.29168 11.4375C5.29168 14.026 7.39064 16.125 9.97918 16.125C12.324 16.125 14.2656 14.4042 14.6115 12.1562C14.9531 12.0281 15.3219 11.9583 15.7083 11.9583C17.4344 11.9583 18.8333 13.3573 18.8333 15.0833C18.8333 16.8094 17.4344 18.2083 15.7083 18.2083H4.25001C1.94897 18.2083 0.0833435 16.3427 0.0833435 14.0417C0.0833435 11.7406 1.94897 9.875 4.25001 9.875C4.68438 9.875 5.10209 9.94167 5.49584 10.0646C5.36251 10.499 5.29168 10.9594 5.29168 11.4375Z" fill="url(#paint2_radial_295_272)"/>
<defs>
<linearGradient id="paint0_linear_295_272" x1="18.8333" y1="4.66667" x2="12.9913" y2="10.4335" gradientUnits="userSpaceOnUse">
<stop stop-color="#FFB301"/>
<stop offset="1" stop-color="#FFC533"/>
</linearGradient>
<linearGradient id="paint1_linear_295_272" x1="9.45834" y1="6.75" x2="9.45834" y2="18.2083" gradientUnits="userSpaceOnUse">
<stop stop-color="#9FC7FF"/>
<stop offset="1" stop-color="#9BC1F5"/>
</linearGradient>
<radialGradient id="paint2_radial_295_272" cx="0" cy="0" r="1" gradientUnits="userSpaceOnUse" gradientTransform="translate(5.8479 -11.3211) rotate(-90) scale(10.9153 3.48805)">
<stop stop-color="#486DA8" stop-opacity="0.4"/>
<stop offset="1" stop-color="#486DA8" stop-opacity="0"/>
</radialGradient>
</defs>
</svg>
