<svg width="21" height="15" viewBox="0 0 21 15" fill="none" xmlns="http://www.w3.org/2000/svg">
<path d="M20.1787 2.5078C19.9493 1.64772 19.2727 0.971125 18.4127 0.737948C16.8607 0.321289 10.6223 0.321289 10.6223 0.321289C10.6223 0.321289 4.38768 0.321289 2.82807 0.737948C1.96799 0.967302 1.2914 1.6439 1.06205 2.5078C0.645386 4.0674 0.645386 7.3204 0.645386 7.3204C0.645386 7.3204 0.645386 10.5772 1.06205 12.133C1.2914 12.9931 1.96799 13.6697 2.82807 13.9029C4.38768 14.3195 10.6223 14.3195 10.6223 14.3195C10.6223 14.3195 16.8607 14.3195 18.4165 13.9029C19.2727 13.6735 19.9493 12.9969 20.1825 12.133C20.5992 10.5734 20.5992 7.3204 20.5992 7.3204C20.5992 7.3204 20.5992 4.06358 20.1825 2.5078H20.1787ZM8.6269 10.3211V4.31969L13.8103 7.3204L8.6269 10.3211Z" fill="#737C98"/>
</svg>
